<svg width="194" height="78" viewBox="0 0 194 78" fill="none" xmlns="http://www.w3.org/2000/svg">
    <path d="M24.06 35.823a.663.663 0 0 1-.19.342.411.411 0 0 1-.304.114h-9.842c-.101 0-.177.063-.228.19l-.722 5.928c0 .127.05.19.152.19h6.118c.279 0 .418.152.418.456l-.456 3.686a.663.663 0 0 1-.19.342.411.411 0 0 1-.304.114h-6.156c-.05 0-.101.025-.152.076-.025.025-.038.063-.038.114l-1.292 10.45a.663.663 0 0 1-.19.342.411.411 0 0 1-.304.114H6.086c-.279 0-.418-.152-.418-.456l3.154-25.688a.486.486 0 0 1 .19-.304.472.472 0 0 1 .342-.152h14.782c.127 0 .228.05.304.152.076.076.101.177.076.304l-.456 3.686zM31.873 58.585c-2.28 0-4.091-.646-5.434-1.938-1.343-1.292-2.014-3.015-2.014-5.168 0-.608.026-1.064.076-1.368l2.204-17.974c0-.127.05-.228.152-.304a.472.472 0 0 1 .342-.152h4.294a.36.36 0 0 1 .304.152c.076.076.101.177.076.304l-2.242 18.24a3.865 3.865 0 0 0-.038.608c0 .912.253 1.647.76 2.204.532.532 1.229.798 2.09.798.988 0 1.812-.33 2.47-.988.684-.659 1.09-1.533 1.216-2.622l2.242-18.24a.578.578 0 0 1 .152-.304.472.472 0 0 1 .342-.152h4.332a.36.36 0 0 1 .304.152c.076.076.102.177.076.304l-2.204 17.974c-.203 1.672-.734 3.154-1.596 4.446a8.98 8.98 0 0 1-3.344 2.964c-1.368.71-2.888 1.064-4.56 1.064zM51.826 58.585c-2.356 0-4.218-.583-5.586-1.748-1.368-1.165-2.052-2.71-2.052-4.636 0-.203.026-.557.076-1.064l.114-.988a.577.577 0 0 1 .152-.304.472.472 0 0 1 .342-.152h4.256a.36.36 0 0 1 .304.152c.076.076.102.177.076.304l-.114.722c-.1.912.127 1.66.684 2.242.583.583 1.406.874 2.47.874 1.04 0 1.85-.291 2.432-.874.608-.583.912-1.317.912-2.204 0-.684-.29-1.267-.874-1.748-.557-.507-1.608-1.19-3.154-2.052-1.292-.735-2.343-1.393-3.154-1.976a8.569 8.569 0 0 1-2.052-2.204c-.557-.912-.836-2.001-.836-3.268 0-1.647.393-3.09 1.178-4.332.786-1.267 1.862-2.242 3.23-2.926 1.394-.684 2.94-1.026 4.636-1.026 2.306 0 4.142.608 5.51 1.824 1.368 1.19 2.052 2.8 2.052 4.826 0 .203-.025.557-.076 1.064l-.076.76a.663.663 0 0 1-.19.342.41.41 0 0 1-.304.114h-4.256a.41.41 0 0 1-.304-.114.412.412 0 0 1-.076-.342l.076-.684c.026-.101.038-.253.038-.456 0-.785-.278-1.431-.836-1.938-.532-.532-1.279-.798-2.242-.798-.937 0-1.71.279-2.318.836-.582.532-.874 1.28-.874 2.242 0 .71.292 1.317.874 1.824.583.507 1.66 1.19 3.23 2.052l.76.456c1.216.785 2.166 1.444 2.85 1.976a6.98 6.98 0 0 1 1.71 1.938c.456.76.684 1.672.684 2.736 0 .228-.025.57-.076 1.026-.278 2.305-1.254 4.142-2.926 5.51-1.672 1.343-3.762 2.014-6.27 2.014zM63.717 58.281c-.279 0-.418-.152-.418-.456l3.154-25.688a.487.487 0 0 1 .19-.304.472.472 0 0 1 .342-.152h4.294a.36.36 0 0 1 .304.152c.076.076.101.177.076.304l-3.154 25.688a.662.662 0 0 1-.19.342.41.41 0 0 1-.304.114h-4.294zM80.409 58.623c-2.331 0-4.18-.646-5.548-1.938-1.343-1.317-2.014-3.078-2.014-5.282 0-.608.025-1.064.076-1.368l1.254-10.108c.202-1.697.734-3.192 1.596-4.484a8.864 8.864 0 0 1 3.344-3.002c1.393-.71 2.938-1.064 4.636-1.064 2.356 0 4.218.659 5.586 1.976 1.368 1.292 2.052 3.053 2.052 5.282 0 .253-.026.684-.076 1.292L90.06 50.035c-.203 1.723-.748 3.23-1.634 4.522a8.788 8.788 0 0 1-3.382 3.002c-1.394.71-2.939 1.064-4.636 1.064zm.57-4.598c1.013 0 1.874-.342 2.584-1.026.709-.71 1.14-1.621 1.292-2.736l1.254-10.488c.025-.152.038-.393.038-.722 0-.937-.266-1.685-.798-2.242-.532-.557-1.254-.836-2.166-.836-1.014 0-1.875.355-2.584 1.064-.684.684-1.09 1.596-1.216 2.736L78.09 50.263a4.186 4.186 0 0 0-.038.646c0 .937.253 1.697.76 2.28.532.557 1.254.836 2.166.836zM108.424 32.137a.575.575 0 0 1 .152-.304.471.471 0 0 1 .342-.152h4.294a.36.36 0 0 1 .304.152c.076.076.101.177.076.304l-3.154 25.688a.663.663 0 0 1-.19.342.41.41 0 0 1-.304.114h-4.484c-.253 0-.418-.114-.494-.342l-5.13-15.466c-.05-.076-.101-.114-.152-.114-.05 0-.076.05-.076.152l-1.862 15.314a.662.662 0 0 1-.19.342.41.41 0 0 1-.304.114h-4.256c-.278 0-.418-.152-.418-.456l3.154-25.688a.487.487 0 0 1 .19-.304.472.472 0 0 1 .342-.152h4.446c.228 0 .38.114.456.342l5.168 15.466c.025.076.063.114.114.114.051 0 .089-.05.114-.152l1.862-15.314zM132.526 33.087c-.05.253-.19.38-.418.38h-11.286c-.101 0-.152.05-.152.152l-1.254 10.298c-.025.025-.025.063 0 .114.026.025.064.038.114.038h7.714c.254 0 .355.127.304.38l-.114 1.026c-.05.253-.19.38-.418.38h-7.714c-.101 0-.152.05-.152.152l-1.444 11.894a.561.561 0 0 1-.152.266.363.363 0 0 1-.266.114h-1.216a.412.412 0 0 1-.304-.114.323.323 0 0 1-.038-.266l3.192-25.84c0-.101.038-.19.114-.266a.412.412 0 0 1 .304-.114h12.996c.254 0 .355.127.304.38l-.114 1.026zM150.414 33.087c-.051.253-.19.38-.418.38h-11.324c-.102 0-.152.05-.152.152l-1.254 10.298c-.026.025-.026.063 0 .114.025.025.063.038.114.038h7.752c.253 0 .354.127.304.38l-.114 1.026c-.051.253-.19.38-.418.38h-7.752c-.102 0-.152.05-.152.152l-1.254 10.336c-.025.025-.025.063 0 .114.025.025.063.038.114.038h11.324c.253 0 .354.127.304.38l-.114 1.026c-.051.253-.19.38-.418.38h-13.034a.41.41 0 0 1-.304-.114.316.316 0 0 1-.038-.266l3.192-25.84c0-.101.038-.19.114-.266a.41.41 0 0 1 .304-.114h13.034c.253 0 .354.127.304.38l-.114 1.026zM169.525 33.087c-.05.253-.19.38-.418.38h-11.324c-.101 0-.152.05-.152.152l-1.254 10.298c-.025.025-.025.063 0 .114.025.025.063.038.114.038h7.752c.253 0 .355.127.304.38l-.114 1.026c-.051.253-.19.38-.418.38h-7.752c-.101 0-.152.05-.152.152l-1.254 10.336c-.025.025-.025.063 0 .114.025.025.064.038.114.038h11.324c.253 0 .355.127.304.38l-.114 1.026c-.051.253-.19.38-.418.38h-13.034a.41.41 0 0 1-.304-.114.32.32 0 0 1-.038-.266l3.192-25.84c0-.101.038-.19.114-.266a.41.41 0 0 1 .304-.114h13.034c.253 0 .355.127.304.38l-.114 1.026zM172.144 58.281a.412.412 0 0 1-.304-.114.323.323 0 0 1-.038-.266l3.192-25.84c0-.101.038-.19.114-.266a.412.412 0 0 1 .304-.114h6.954c1.875 0 3.332.52 4.37 1.558 1.064 1.013 1.596 2.432 1.596 4.256 0 .532-.025.95-.076 1.254l-1.52 12.464c-.253 2.179-1.064 3.901-2.432 5.168-1.368 1.267-3.103 1.9-5.206 1.9h-6.954zm1.824-1.938c-.025.025-.025.063 0 .114.026.025.064.038.114.038h5.282c1.444 0 2.66-.481 3.648-1.444.988-.988 1.571-2.305 1.748-3.952l1.52-12.198c.051-.507.076-.849.076-1.026 0-1.393-.367-2.47-1.102-3.23-.734-.785-1.76-1.178-3.078-1.178h-5.282c-.101 0-.152.05-.152.152l-2.774 22.724z" fill="#00B2E3"/>
</svg>
