<svg width="120" height="120" viewBox="0 0 120 120" fill="none" xmlns="http://www.w3.org/2000/svg">
    <path fill-rule="evenodd" clip-rule="evenodd" d="M44.303 8 24 21.535V117h78V8H44.303zM23.445 20.703 43.748 7.168A1 1 0 0 1 44.303 7H102a1 1 0 0 1 1 1v109a1 1 0 0 1-1 1H24a1 1 0 0 1-1-1V21.535a1 1 0 0 1 .445-.832z" fill="#5B6771"/>
    <path d="M39.748 3.168 19.445 16.703a1 1 0 0 0-.445.832V113a1 1 0 0 0 1 1h78a1 1 0 0 0 1-1V4a1 1 0 0 0-1-1H40.303a1 1 0 0 0-.555.168z" fill="#FDFDFD"/>
    <path d="M37.748 1.168 17.445 14.703a1 1 0 0 0-.445.832V111a1 1 0 0 0 1 1h78a1 1 0 0 0 1-1V2a1 1 0 0 0-1-1H38.303a1 1 0 0 0-.555.168z" fill="#00B2E3"/>
    <path fill-rule="evenodd" clip-rule="evenodd" d="M38.303 2 18 15.535V111h78V2H38.303zM17.445 14.703 37.748 1.168A1 1 0 0 1 38.303 1H96a1 1 0 0 1 1 1v109a1 1 0 0 1-1 1H18a1 1 0 0 1-1-1V15.535a1 1 0 0 1 .445-.832z" fill="#00B2E3"/>
    <path d="M37.748 1.168 17.445 14.703a1 1 0 0 0-.445.832V108a4 4 0 0 0 4 4h72a4 4 0 0 0 4-4V5a4 4 0 0 0-4-4H38.303a1 1 0 0 0-.555.168z" fill="#00B2E3"/>
    <path d="M38 15H17L38 1v14z" fill="#FDFDFD"/>
    <path fill-rule="evenodd" clip-rule="evenodd" d="M38.303 1a1 1 0 0 0-.303.047V1L17 15h.155a1.002 1.002 0 0 0-.155.535V108a4 4 0 0 0 4 4h72a4 4 0 0 0 4-4V5a4 4 0 0 0-4-4H38.303zM18 16v92a3 3 0 0 0 3 3h72a3 3 0 0 0 3-3V5a3 3 0 0 0-3-3H39v14H18zm2.303-2H37V2.869L20.303 14z" fill="#00B2E3"/>
    <path fill-rule="evenodd" clip-rule="evenodd" d="M45.615 24.587a1.8 1.8 0 0 1 .297 2.529l-7.5 9.5a1.8 1.8 0 0 1-2.758.08l-4-4.5a1.8 1.8 0 1 1 2.69-2.392l2.573 2.895 6.17-7.814a1.8 1.8 0 0 1 2.528-.298zm11.084 6.163a1.8 1.8 0 0 1 1.8-1.8h23a1.8 1.8 0 1 1 0 3.6h-23a1.8 1.8 0 0 1-1.8-1.8zM45.615 50.087a1.8 1.8 0 0 1 .297 2.529l-7.5 9.5a1.8 1.8 0 0 1-2.758.08l-4-4.5a1.8 1.8 0 1 1 2.69-2.392l2.573 2.895 6.17-7.814a1.8 1.8 0 0 1 2.528-.297zm11.084 6.163a1.8 1.8 0 0 1 1.8-1.8h23a1.8 1.8 0 1 1 0 3.6h-23a1.8 1.8 0 0 1-1.8-1.8zM45.615 75.588a1.8 1.8 0 0 1 .297 2.528l-7.5 9.5a1.8 1.8 0 0 1-2.758.08l-4-4.5a1.8 1.8 0 1 1 2.69-2.392l2.573 2.895 6.17-7.814a1.8 1.8 0 0 1 2.528-.297zm11.084 6.162a1.8 1.8 0 0 1 1.8-1.8h23a1.8 1.8 0 1 1 0 3.6h-23a1.8 1.8 0 0 1-1.8-1.8z" fill="#FDFDFD"/>
</svg>
