<svg width="240" height="110" viewBox="0 0 240 110" fill="none" xmlns="http://www.w3.org/2000/svg">
    <g clip-path="url(#u4gs16thfa)" fill="#00B2E3">
        <path d="m95.941 14.884 11.162 11.438h38.547L120.94 0v14.884H95.941zM145.65 45.694l-11.161-11.44H95.941l24.711 26.323V45.694h24.998z"/>
    </g>
    <path d="M11.315 83.582H7.699v18.216H4.115V83.582H.5v-3.107h10.813l.002 3.107zM15.024 101.798V80.475h9.484v3.107h-5.9v5.848h4.943v3.107h-4.943v6.153H24.6v3.108h-9.577zM37.575 98.69h-2.009l-3.243-9.93v13.038h-3.337V80.475h3.399l4.17 12.397 4.201-12.397h3.522v21.323H40.82V88.76l-3.245 9.93zM60.251 84.982v4.051c0 3.228-2.163 4.51-5.438 4.51h-2.007v8.255h-3.583V80.475h5.59c3.276 0 5.438 1.279 5.438 4.507zm-3.584.549c0-1.523-.803-1.95-1.977-1.95h-1.884v6.854h1.884c1.173 0 1.977-.427 1.977-1.95v-2.954zM75.203 97.532c0 3.29-2.1 4.508-5.374 4.508h-.124c-3.273 0-5.374-1.188-5.374-4.508V80.475h3.584v16.509c0 1.523.68 1.95 1.853 1.95 1.174 0 1.854-.427 1.854-1.95v-16.51h3.584l-.003 17.058zM86.82 88.09v-2.987c0-1.34-.771-1.828-1.822-1.828-1.051 0-1.822.488-1.822 1.828v1.462c0 1.097.37 1.584 1.39 2.163l2.532 1.4c2.07 1.157 3.308 2.103 3.308 4.387v3.077c0 3.29-2.07 4.447-5.345 4.447h-.062c-3.273 0-5.345-1.127-5.345-4.447v-3.716h3.523v3.227c0 1.31.772 1.889 1.854 1.889 1.081 0 1.853-.578 1.853-1.89v-1.675c0-1.096-.342-1.644-1.421-2.223l-2.502-1.401c-2.101-1.188-3.307-2.163-3.307-4.387v-2.802c0-3.168 2.349-4.386 5.315-4.386h.062c2.965 0 5.313 1.218 5.313 4.386v3.472l-3.523.003zM103.256 101.798V80.475h8.745v1.98h-6.519v7.553h5.562v1.95h-5.562v7.859h6.611v1.979l-8.837.002zM122.811 90.892l4.51 10.904h-2.379l-3.522-8.955-3.49 8.955h-2.318l4.573-10.996-4.233-10.325h2.379l3.213 8.376 2.997-8.376h2.317l-4.047 10.417zM148.88 88.71v13.194h3.502v-21.58h-3.565l-4.252 12.547-4.221-12.547h-3.44v21.58h3.377V88.709l3.283 10.05h2.033l3.283-10.05zM164.817 101.904h3.69l-4.127-21.58h-4.565l-4.065 21.58h3.502l.782-4.81h4.002l.781 4.81zm-4.314-7.769 1.532-9.588 1.532 9.588h-3.064zM182.731 93.118h-3.627v3.915c0 1.51-.751 1.973-1.908 1.973s-1.907-.463-1.907-1.973V85.195c0-1.51.75-1.973 1.907-1.973s1.908.462 1.908 1.973v3.39h3.627V84.64c0-3.206-2.189-4.563-5.504-4.563h-.062c-3.314 0-5.503 1.357-5.503 4.563v12.948c0 3.36 2.189 4.562 5.503 4.562h.062c3.315 0 5.504-1.233 5.504-4.562v-4.47zM187.182 80.324v21.58h3.627v-9.372h4.159v9.372h3.627v-21.58h-3.627v9.002h-4.159v-9.002h-3.627zM207.032 101.904v-21.58h-3.627v21.58h3.627zM215.15 101.904V87.877l4.784 14.027h3.44v-21.58h-3.315v13.349l-4.596-13.35h-3.627v21.581h3.314zM235.81 101.904h3.69l-4.127-21.58h-4.565l-4.065 21.58h3.502l.781-4.81h4.003l.781 4.81zm-4.315-7.769 1.532-9.588 1.533 9.588h-3.065zM235.786 106.861c.018 0 .032.006.042.018.015.009.022.021.022.036v.534c0 .015-.007.028-.022.04a.06.06 0 0 1-.042.014h-.929c-.017 0-.026.007-.026.022v2.422c0 .015-.007.028-.021.04a.065.065 0 0 1-.043.014h-.753a.087.087 0 0 1-.048-.014.057.057 0 0 1-.016-.04v-2.422c0-.015-.009-.022-.027-.022h-.896a.087.087 0 0 1-.048-.014.057.057 0 0 1-.016-.04v-.534c0-.015.005-.027.016-.036a.072.072 0 0 1 .048-.018h2.759zM238.613 106.897c.015-.024.039-.036.075-.036h.748c.018 0 .032.006.042.018.014.009.022.021.022.036v3.032c0 .015-.008.028-.022.04a.06.06 0 0 1-.042.014h-.754a.086.086 0 0 1-.047-.014.057.057 0 0 1-.016-.04v-1.803c0-.012-.004-.018-.011-.018-.007 0-.014.004-.021.013l-.456.619c-.015.024-.039.036-.075.036h-.377c-.035 0-.06-.012-.074-.036l-.461-.623c-.008-.009-.015-.014-.022-.014-.007 0-.01.006-.01.018v1.808c0 .015-.007.028-.022.04a.06.06 0 0 1-.042.014h-.754a.086.086 0 0 1-.047-.014.057.057 0 0 1-.016-.04v-3.032c0-.015.005-.027.016-.036a.071.071 0 0 1 .047-.018h.749c.032 0 .056.012.074.036l.738.978c.01.018.021.018.031 0l.727-.978z" fill="#00B2E3"/>
    <defs>
        <clipPath id="u4gs16thfa">
            <path fill="#fff" transform="translate(95.941)" d="M0 0h49.709v60.317H0z"/>
        </clipPath>
    </defs>
</svg>
