<svg width="206" height="84" viewBox="0 0 206 84" fill="none" xmlns="http://www.w3.org/2000/svg">
    <path d="M21.94 36.59a.855.855 0 0 1-.212.425.43.43 0 0 1-.338.142H10.454c-.113 0-.197.079-.253.236l-.803 7.37c0 .158.056.237.169.237h6.8c.309 0 .464.189.464.567l-.507 4.583a.856.856 0 0 1-.211.425.43.43 0 0 1-.338.142H8.933c-.057 0-.113.031-.17.094-.028.032-.042.079-.042.142L7.286 63.945a.855.855 0 0 1-.212.426.43.43 0 0 1-.337.141H1.965c-.31 0-.465-.189-.465-.567l3.505-31.938a.617.617 0 0 1 .211-.378.502.502 0 0 1 .38-.189h16.428a.39.39 0 0 1 .338.19c.084.094.112.22.084.377l-.507 4.583zM30.622 64.89c-2.533 0-4.546-.803-6.038-2.41-1.493-1.606-2.239-3.747-2.239-6.425 0-.756.028-1.322.085-1.7l2.45-22.348c0-.157.055-.283.168-.378a.502.502 0 0 1 .38-.189H30.2a.39.39 0 0 1 .338.19c.084.094.113.22.084.377l-2.491 22.678a5.372 5.372 0 0 0-.042.756c0 1.134.281 2.047.844 2.74.591.662 1.366.992 2.323.992 1.098 0 2.013-.409 2.745-1.228.76-.819 1.21-1.905 1.351-3.26l2.492-22.678a.754.754 0 0 1 .169-.378.502.502 0 0 1 .38-.189h4.814a.39.39 0 0 1 .338.19c.084.094.112.22.084.377L41.18 54.355c-.225 2.078-.816 3.92-1.774 5.527-.957 1.575-2.196 2.803-3.716 3.685-1.52.882-3.21 1.323-5.068 1.323zM52.797 64.89c-2.618 0-4.688-.724-6.208-2.173-1.52-1.449-2.28-3.37-2.28-5.764 0-.252.028-.693.084-1.323l.127-1.228a.752.752 0 0 1 .169-.378.501.501 0 0 1 .38-.19h4.73a.39.39 0 0 1 .337.19c.085.094.113.22.085.378l-.127.897c-.112 1.134.141 2.063.76 2.788.648.724 1.563 1.086 2.745 1.086 1.155 0 2.056-.362 2.703-1.086.676-.725 1.014-1.638 1.014-2.74 0-.85-.324-1.575-.972-2.174-.619-.63-1.787-1.48-3.505-2.55-1.436-.914-2.604-1.733-3.505-2.458-.873-.724-1.633-1.637-2.28-2.74-.62-1.134-.93-2.488-.93-4.063 0-2.047.437-3.843 1.31-5.386.873-1.575 2.069-2.788 3.59-3.638 1.548-.85 3.265-1.276 5.151-1.276 2.562 0 4.604.756 6.124 2.268 1.52 1.48 2.28 3.48 2.28 6 0 .252-.028.693-.084 1.323l-.085.945a.854.854 0 0 1-.21.425.431.431 0 0 1-.339.142h-4.73a.43.43 0 0 1-.337-.142c-.085-.126-.113-.267-.085-.425l.085-.85c.028-.126.042-.315.042-.567 0-.976-.31-1.78-.93-2.41-.59-.661-1.42-.992-2.49-.992-1.042 0-1.901.347-2.577 1.04-.647.661-.971 1.59-.971 2.787 0 .882.324 1.638.971 2.268.648.63 1.844 1.48 3.59 2.551l.844.567c1.352.977 2.407 1.795 3.168 2.457a8.453 8.453 0 0 1 1.9 2.41c.507.944.76 2.078.76 3.401 0 .284-.028.709-.084 1.276-.31 2.866-1.394 5.15-3.252 6.85-1.858 1.67-4.18 2.504-6.968 2.504zM66.011 64.512c-.31 0-.464-.189-.464-.567l3.505-31.938a.618.618 0 0 1 .21-.378.501.501 0 0 1 .38-.189h4.773a.39.39 0 0 1 .338.19c.084.094.112.22.084.377l-3.505 31.938a.855.855 0 0 1-.211.426.43.43 0 0 1-.338.141h-4.772zM84.561 64.938c-2.59 0-4.645-.804-6.166-2.41-1.492-1.638-2.238-3.827-2.238-6.567 0-.756.029-1.323.085-1.701l1.393-12.567c.226-2.11.817-3.969 1.774-5.575.957-1.607 2.196-2.85 3.716-3.733 1.549-.881 3.266-1.322 5.152-1.322 2.619 0 4.688.818 6.208 2.456 1.52 1.607 2.28 3.796 2.28 6.567 0 .315-.027.85-.084 1.607L95.288 54.26c-.226 2.142-.83 4.016-1.816 5.622-.957 1.607-2.21 2.85-3.759 3.733-1.548.881-3.266 1.322-5.152 1.322zm.634-5.717c1.126 0 2.083-.425 2.871-1.276.789-.882 1.267-2.016 1.436-3.401l1.394-13.04c.028-.19.042-.488.042-.898 0-1.165-.296-2.095-.887-2.787-.591-.693-1.394-1.04-2.407-1.04-1.126 0-2.083.441-2.872 1.323-.76.85-1.21 1.984-1.351 3.402l-1.436 13.04a5.802 5.802 0 0 0-.042.803c0 1.165.281 2.11.844 2.834.592.693 1.394 1.04 2.408 1.04zM115.695 32.007a.764.764 0 0 1 .169-.378.503.503 0 0 1 .38-.189h4.772c.141 0 .254.063.338.19.085.094.113.22.085.377l-3.505 31.938a.858.858 0 0 1-.211.426.433.433 0 0 1-.338.141h-4.983c-.282 0-.465-.141-.549-.425l-5.702-19.229c-.056-.094-.112-.142-.169-.142-.056 0-.084.063-.084.19l-2.069 19.04a.858.858 0 0 1-.211.425.432.432 0 0 1-.338.141h-4.73c-.31 0-.465-.189-.465-.567l3.506-31.938a.615.615 0 0 1 .211-.378.5.5 0 0 1 .38-.189h4.941c.253 0 .422.142.506.426l5.744 19.229c.028.094.07.141.126.141.057 0 .099-.063.127-.189l2.069-19.04zM142.481 33.188c-.057.316-.211.473-.465.473h-12.542c-.113 0-.169.063-.169.189l-1.394 12.803c-.028.032-.028.08 0 .142.028.032.071.047.127.047h8.573c.281 0 .394.158.338.473l-.127 1.276c-.056.315-.211.472-.465.472h-8.572c-.113 0-.169.063-.169.189l-1.605 14.788a.728.728 0 0 1-.169.33.385.385 0 0 1-.296.142h-1.351a.432.432 0 0 1-.338-.141.44.44 0 0 1-.042-.331l3.547-32.127c0-.126.042-.236.127-.33a.43.43 0 0 1 .338-.142h14.443c.281 0 .394.157.337.472l-.126 1.275zM162.36 33.188c-.057.316-.211.473-.465.473H149.31c-.112 0-.168.063-.168.189l-1.394 12.803c-.028.032-.028.08 0 .142.028.032.07.047.127.047h8.615c.281 0 .394.158.337.473l-.126 1.276c-.057.315-.211.472-.465.472h-8.615c-.112 0-.169.063-.169.189l-1.393 12.85c-.028.032-.028.08 0 .143.028.031.07.047.126.047h12.585c.282 0 .394.157.338.472l-.127 1.276c-.056.315-.211.472-.464.472h-14.485a.43.43 0 0 1-.338-.141.435.435 0 0 1-.042-.331l3.547-32.127c0-.126.042-.236.127-.33a.43.43 0 0 1 .338-.142h14.485c.281 0 .394.157.337.472l-.126 1.275zM183.599 33.188c-.057.316-.212.473-.465.473h-12.585c-.112 0-.169.063-.169.189l-1.393 12.803c-.028.032-.028.08 0 .142.028.032.07.047.127.047h8.615c.281 0 .394.158.337.473l-.126 1.276c-.057.315-.211.472-.465.472h-8.615c-.112 0-.169.063-.169.189l-1.393 12.85c-.029.032-.029.08 0 .143.028.031.07.047.126.047h12.585c.282 0 .394.157.338.472l-.127 1.276c-.056.315-.211.472-.464.472h-14.485a.43.43 0 0 1-.338-.141.43.43 0 0 1-.042-.331l3.547-32.127c0-.126.042-.236.127-.33a.43.43 0 0 1 .337-.142h14.485c.282 0 .395.157.338.472l-.126 1.275zM186.509 64.512a.43.43 0 0 1-.337-.141.435.435 0 0 1-.043-.331l3.548-32.127c0-.126.042-.236.126-.33a.433.433 0 0 1 .338-.142h7.728c2.084 0 3.703.645 4.857 1.936 1.182 1.26 1.774 3.024 1.774 5.292 0 .661-.029 1.181-.085 1.56l-1.689 15.496c-.282 2.708-1.183 4.85-2.703 6.425-1.52 1.575-3.449 2.362-5.785 2.362h-7.729zm2.028-2.41c-.029.032-.029.08 0 .143.028.031.07.047.126.047h5.87c1.605 0 2.956-.599 4.054-1.796 1.098-1.228 1.746-2.866 1.943-4.913l1.689-15.166c.056-.63.085-1.055.085-1.276 0-1.732-.409-3.07-1.225-4.015-.817-.977-1.957-1.465-3.421-1.465h-5.87c-.112 0-.169.063-.169.189l-3.082 28.253z" fill="#090A0B"/>
</svg>
