<svg width="358" height="180" viewBox="0 0 358 180" fill="none" xmlns="http://www.w3.org/2000/svg">
    <path d="M39.033 88.87c1.517 0 2.561-.229 3.13-.684.607-.493.91-1.48.91-2.96V72.192c0-2.543.475-4.326 1.424-5.35.949-1.063 2.542-1.595 4.781-1.595h3.7v3.985h-2.903c-.91 0-1.575.152-1.992.455-.38.266-.57.816-.57 1.65v13.89c0 1.897-.474 3.452-1.422 4.667-.911 1.214-2.05 1.935-3.416 2.163 1.367.151 2.505.834 3.416 2.049.948 1.214 1.423 2.77 1.423 4.667v13.889c0 .834.19 1.385.569 1.65.417.304 1.081.456 1.992.456h2.903v3.984h-3.7c-2.239 0-3.832-.531-4.781-1.594-.949-1.024-1.423-2.808-1.423-5.35V98.773c0-1.48-.304-2.447-.91-2.903-.57-.493-1.614-.74-3.131-.74v-6.26z" fill="#5B6771"/>
    <path fill-rule="evenodd" clip-rule="evenodd" d="M36.445 86.282h2.588c.644 0 1.087-.05 1.37-.111l.007-.002c.04-.192.077-.496.077-.943V72.192c0-2.705.473-5.325 2.095-7.091 1.662-1.847 4.144-2.44 6.696-2.44h6.287v9.158h-5.464v13.407c0 2.329-.587 4.478-1.956 6.24-.14.185-.284.363-.434.535.15.17.295.347.434.532 1.369 1.763 1.956 3.911 1.956 6.24v13.407h5.464v9.159h-6.287c-2.552 0-5.034-.593-6.695-2.44-1.623-1.766-2.096-4.386-2.096-7.091V98.773a4.64 4.64 0 0 0-.075-.926 1.977 1.977 0 0 0-.053-.014c-.265-.062-.692-.115-1.326-.115h-2.588V86.282zm8.052 30.876c.949 1.063 2.542 1.594 4.781 1.594h3.7v-3.984h-2.903c-.91 0-1.575-.152-1.992-.456-.38-.265-.57-.816-.57-1.65V98.773c0-1.897-.474-3.453-1.422-4.667a6.408 6.408 0 0 0-.366-.445c-.844-.938-1.86-1.472-3.05-1.604 1.181-.197 2.192-.762 3.032-1.696.132-.147.26-.303.384-.467.948-1.215 1.423-2.77 1.423-4.668V71.338c0-.835.19-1.385.569-1.65.417-.304 1.081-.456 1.992-.456h2.903v-3.985h-3.7c-2.239 0-3.832.532-4.781 1.594-.949 1.025-1.423 2.808-1.423 5.35v13.035c0 1.48-.304 2.467-.91 2.96-.57.455-1.614.683-3.131.683v6.261c1.517 0 2.561.247 3.13.74.607.456.91 1.423.91 2.903v13.035c0 2.542.475 4.326 1.424 5.35zm-4.15-30.772.002-.001-.001.001z" fill="#5B6771"/>
    <path d="M71.104 95.415v16.506h-4.952V72.077h10.7c3.226 0 5.655.722 7.286 2.163 1.67 1.404 2.505 3.643 2.505 6.717v5.464c0 4.288-1.708 6.963-5.123 8.026l7.912 17.474h-5.407l-7.343-16.506h-5.578zm10.587-14.97c0-1.442-.342-2.486-1.025-3.13-.645-.646-1.688-.968-3.13-.968h-6.432v14.799h6.432c1.442 0 2.485-.323 3.13-.968.683-.683 1.025-1.746 1.025-3.188v-6.545zM117.78 72.078v4.155h-14.059v13.034h12.636v4.155h-12.636v14.344h14.059v4.155H98.769V72.077h19.011zM148.633 102.245c0 3.225-.892 5.654-2.675 7.286-1.746 1.593-4.269 2.39-7.571 2.39h-8.082v-4.326h8.652c1.404 0 2.542-.417 3.415-1.252.873-.835 1.309-1.84 1.309-3.017v-5.92c0-1.138-.304-2.048-.911-2.731-.569-.721-1.442-1.082-2.618-1.082h-1.708c-2.808 0-5.028-.816-6.659-2.447-1.632-1.67-2.448-4.08-2.448-7.23v-2.162c0-3.226.873-5.635 2.618-7.229 1.784-1.632 4.326-2.448 7.628-2.448h8.139v4.326h-8.709c-1.404 0-2.542.418-3.415 1.253-.872.834-1.309 1.84-1.309 3.016v4.326c0 1.177.38 2.163 1.139 2.96.758.759 1.745 1.139 2.959 1.139h1.708c2.694 0 4.781.777 6.261 2.333 1.518 1.556 2.277 3.909 2.277 7.058v3.757zM167.248 111.921V76.403h-9.05v-4.326h23.052v4.326h-9.05v35.518h-4.952z" fill="#5B6771"/>
    <path fill-rule="evenodd" clip-rule="evenodd" d="M80.666 77.314c-.645-.645-1.688-.967-3.13-.967h-6.432v14.799h6.432c1.442 0 2.485-.323 3.13-.968.683-.683 1.025-1.746 1.025-3.188v-6.545c0-1.442-.342-2.486-1.025-3.13zm-6.975 11.244h3.845c.976 0 1.276-.196 1.307-.216.039-.046.26-.35.26-1.352v-6.545c0-.948-.197-1.228-.219-1.255l-.021-.02-.019-.019c-.015-.01-.305-.217-1.308-.217H73.69v9.624zm10.334 23.363-7.343-16.506h-5.578v16.506h-4.952V72.077h10.7c3.226 0 5.655.722 7.286 2.163 1.67 1.404 2.505 3.643 2.505 6.717v5.464c0 3.419-1.085 5.812-3.256 7.18a7.861 7.861 0 0 1-1.867.846l7.912 17.474h-5.407zm.898-16.231 8.52 18.819h-11.1l-7.342-16.507h-1.31v16.507H63.564V69.49h13.289c3.548 0 6.69.785 8.975 2.79 2.446 2.073 3.402 5.176 3.402 8.677v5.464c0 2.47-.49 4.74-1.687 6.615a8.855 8.855 0 0 1-2.62 2.654zm35.444-26.2v9.33h-14.059v7.86h12.636v9.33h-12.636v9.169h14.059v9.33H96.182V69.49h24.185zm-16.646 38.276V93.422h12.636v-4.155h-12.636V76.233h14.059v-4.156H98.769v39.844h19.011v-4.155h-14.059zm43.983 3.674-.002.001c-2.383 2.176-5.624 3.068-9.315 3.068h-10.67v-9.501h11.24c.854 0 1.313-.235 1.626-.534.378-.362.511-.698.511-1.148v-5.92c0-.666-.168-.911-.258-1.013l-.05-.056-.047-.06c-.002-.003-.004-.008-.038-.022-.056-.023-.219-.075-.549-.075h-1.708c-3.335 0-6.27-.986-8.489-3.205l-.01-.01-.011-.011c-2.25-2.302-3.184-5.454-3.184-9.037v-2.163c0-3.677 1.004-6.896 3.461-9.14 2.411-2.205 5.664-3.124 9.372-3.124h10.726v9.5h-11.296c-.853 0-1.313.236-1.626.535-.378.362-.511.698-.511 1.147v4.326c0 .547.149.876.403 1.152.207.199.503.36 1.108.36h1.708c3.205 0 6.039.94 8.125 3.125 2.156 2.219 3 5.337 3 8.853v3.757c0 3.697-1.034 6.924-3.516 9.195zm-12.276-23.482c-.759-.797-1.139-1.783-1.139-2.96v-4.326c0-1.176.437-2.181 1.309-3.016.873-.835 2.011-1.253 3.415-1.253h8.709v-4.326h-8.139c-3.302 0-5.844.816-7.628 2.448-1.745 1.594-2.618 4.003-2.618 7.229v2.163c0 3.15.816 5.559 2.448 7.229 1.631 1.631 3.851 2.447 6.659 2.447h1.708c1.176 0 2.049.36 2.618 1.082.607.683.911 1.593.911 2.732v5.919c0 1.177-.436 2.182-1.309 3.017s-2.011 1.252-3.415 1.252h-8.652v4.326h8.082c3.302 0 5.825-.797 7.571-2.39 1.783-1.632 2.675-4.061 2.675-7.286v-3.757c0-3.15-.759-5.502-2.277-7.058-1.48-1.556-3.567-2.334-6.261-2.334h-1.708c-1.214 0-2.201-.379-2.959-1.138zm29.233 26.551V78.991h-9.051v-9.5h28.227v9.5h-9.05v35.518h-10.126zm7.539-38.106h9.05v-4.326h-23.052v4.326h9.05v35.518h4.952V76.403z" fill="#5B6771"/>
    <path d="M200.117 83.461v5.692h-5.692v-5.692h5.692zm0 22.768v5.692h-5.692v-5.692h5.692z" fill="#5B6771"/>
    <path fill-rule="evenodd" clip-rule="evenodd" d="M202.704 80.874v10.867h-10.866V80.873h10.866zm0 22.768v10.866h-10.866v-10.866h10.866zm-2.587-20.18h-5.692v5.691h5.692v-5.692zm0 22.767h-5.692v5.692h5.692v-5.692z" fill="#5B6771"/>
    <path d="m221.275 101.847-2.22 10.074h-5.066l9.62-39.844h6.546l9.448 39.844h-5.066l-2.163-10.074h-11.099zm10.189-4.27-4.668-21.743-4.61 21.744h9.278zM267.838 87.446c0 3.073-.816 5.35-2.448 6.83-1.632 1.442-4.041 2.163-7.229 2.163h-5.919v15.482h-4.952V72.077h10.757c3.226 0 5.654.722 7.286 2.163 1.67 1.404 2.505 3.643 2.505 6.717v6.489zm-4.952-7.001c0-1.442-.342-2.486-1.025-3.13-.645-.646-1.689-.968-3.131-.968h-6.488V92.17h6.488c1.442 0 2.486-.322 3.131-.968.683-.683 1.025-1.745 1.025-3.187v-7.57zM285.77 107.766V76.233h-5.123v-4.156h15.197v4.156h-5.122v31.533h5.122v4.155h-15.197v-4.155h5.123z" fill="#5B6771"/>
    <path fill-rule="evenodd" clip-rule="evenodd" d="M222.186 97.578h9.278l-4.668-21.744-4.61 21.744zm1.423-25.5h6.546l9.448 39.843h-5.066l-2.163-10.074h-11.099l-2.22 10.074h-5.066l9.62-39.844zm-.255 32.356-2.22 10.075h-10.431l10.869-45.019H232.2l10.676 45.019h-10.429l-2.163-10.075h-6.93zm3.458-16.2-1.433 6.756h2.883l-1.45-6.756zm40.304 7.97-.013.01c-2.282 2.018-5.41 2.812-8.942 2.812h-3.332v15.483h-10.127V69.49h13.345c3.548 0 6.69.785 8.976 2.79 2.446 2.073 3.402 5.176 3.402 8.677v6.489c0 3.506-.937 6.607-3.297 8.747l-.012.01zm-14.874.235h5.919c3.188 0 5.597-.72 7.229-2.163 1.632-1.48 2.448-3.757 2.448-6.83v-6.489c0-3.074-.835-5.313-2.505-6.717-1.632-1.441-4.06-2.162-7.286-2.162H247.29v39.843h4.952V96.439zm9.619-19.125c-.645-.645-1.689-.967-3.131-.967h-6.488V92.17h6.488c1.442 0 2.486-.322 3.131-.968.683-.683 1.025-1.745 1.025-3.187v-7.57c0-1.442-.342-2.486-1.025-3.13zm-7.032 12.269h3.902c.976 0 1.276-.196 1.306-.216.04-.046.261-.35.261-1.352v-7.57c0-.948-.197-1.228-.219-1.255l-.021-.02-.019-.019c-.016-.01-.305-.217-1.308-.217h-3.902v10.649zM278.06 78.82v-9.33h20.372v9.33h-5.123v26.359h5.123v9.33H278.06v-9.33h5.122v-26.36h-5.122zm7.71 28.946h-5.123v4.155h15.197v-4.155h-5.122V76.233h5.122v-4.156h-15.197v4.156h5.123v31.533z" fill="#5B6771"/>
    <path d="M322.966 95.13c-1.518 0-2.58.247-3.187.74-.57.456-.854 1.423-.854 2.903v13.035c0 2.542-.474 4.326-1.423 5.35-.949 1.063-2.543 1.594-4.781 1.594h-3.7v-3.984h2.903c.91 0 1.556-.152 1.935-.456.417-.265.626-.816.626-1.65V98.773c0-1.897.456-3.453 1.366-4.667.949-1.215 2.106-1.898 3.472-2.05-1.366-.227-2.523-.948-3.472-2.162-.91-1.215-1.366-2.77-1.366-4.668V71.338c0-.835-.209-1.385-.626-1.65-.379-.304-1.025-.456-1.935-.456h-2.903v-3.985h3.7c2.238 0 3.832.532 4.781 1.594.949 1.025 1.423 2.808 1.423 5.35v13.035c0 1.48.284 2.467.854 2.96.607.455 1.669.683 3.187.683v6.261z" fill="#5B6771"/>
    <path fill-rule="evenodd" clip-rule="evenodd" d="M325.553 97.718h-2.587c-.632 0-1.069.052-1.35.117a1.658 1.658 0 0 0-.036.01 5.24 5.24 0 0 0-.068.928v13.035c0 2.705-.473 5.325-2.096 7.091-1.661 1.847-4.143 2.44-6.695 2.44h-6.287v-9.159h5.464V98.773c0-2.315.561-4.456 1.883-6.22l.016-.02.015-.02c.139-.178.283-.349.431-.513a9.877 9.877 0 0 1-.431-.513l-.015-.02-.016-.021c-1.322-1.764-1.883-3.905-1.883-6.22V71.82h-5.464V62.66h6.287c2.552 0 5.034.594 6.695 2.44 1.623 1.767 2.096 4.387 2.096 7.092v13.034c0 .433.032.74.069.944.299.063.748.112 1.385.112h2.587v11.436zm-5.774-9.532c-.57-.493-.854-1.48-.854-2.96V72.192c0-2.543-.474-4.326-1.423-5.35-.949-1.063-2.543-1.595-4.781-1.595h-3.7v3.985h2.903c.91 0 1.556.152 1.935.455.417.266.626.816.626 1.65v13.89c0 1.897.456 3.452 1.366 4.667.132.169.268.328.408.478.867.927 1.888 1.489 3.064 1.685-1.184.131-2.211.662-3.082 1.592a6.858 6.858 0 0 0-.39.457c-.91 1.214-1.366 2.77-1.366 4.667v13.889c0 .834-.209 1.385-.626 1.65-.379.304-1.025.456-1.935.456h-2.903v3.984h3.7c2.238 0 3.832-.531 4.781-1.594.949-1.024 1.423-2.808 1.423-5.35V98.773c0-1.48.284-2.447.854-2.903.607-.493 1.669-.74 3.187-.74v-6.26c-1.518 0-2.58-.229-3.187-.684z" fill="#5B6771"/>
    <path d="M38.033 87.87c1.517 0 2.561-.229 3.13-.684.607-.493.91-1.48.91-2.96V71.192c0-2.543.475-4.326 1.424-5.35.949-1.063 2.542-1.595 4.781-1.595h3.7v3.985h-2.903c-.91 0-1.575.152-1.992.455-.38.266-.57.816-.57 1.65v13.89c0 1.897-.474 3.452-1.422 4.667-.911 1.214-2.05 1.935-3.416 2.163 1.367.151 2.505.834 3.416 2.049.948 1.214 1.423 2.77 1.423 4.667v13.889c0 .834.19 1.385.569 1.65.417.304 1.081.456 1.992.456h2.903v3.984h-3.7c-2.239 0-3.832-.531-4.781-1.594-.949-1.024-1.423-2.808-1.423-5.35V97.773c0-1.48-.304-2.447-.91-2.903-.57-.493-1.614-.74-3.131-.74v-6.26z" fill="#FDFDFD"/>
    <path fill-rule="evenodd" clip-rule="evenodd" d="M35.445 85.282h2.588c.644 0 1.087-.05 1.37-.111l.007-.002c.04-.192.077-.496.077-.943V71.192c0-2.705.473-5.325 2.095-7.091 1.662-1.847 4.144-2.44 6.696-2.44h6.287v9.158h-5.464v13.407c0 2.329-.587 4.478-1.956 6.24-.14.185-.284.363-.434.535.15.17.295.347.434.532 1.369 1.763 1.956 3.911 1.956 6.24v13.407h5.464v9.159h-6.287c-2.552 0-5.034-.593-6.695-2.44-1.623-1.766-2.096-4.386-2.096-7.091V97.773a4.64 4.64 0 0 0-.075-.926 1.977 1.977 0 0 0-.053-.014c-.265-.062-.692-.115-1.326-.115h-2.588V85.282zm8.052 30.876c.949 1.063 2.542 1.594 4.781 1.594h3.7v-3.984h-2.903c-.91 0-1.575-.152-1.992-.456-.38-.265-.57-.816-.57-1.65V97.773c0-1.897-.474-3.453-1.422-4.667a6.408 6.408 0 0 0-.366-.445c-.844-.938-1.86-1.472-3.05-1.604 1.181-.197 2.192-.762 3.032-1.696.132-.147.26-.303.384-.467.948-1.215 1.423-2.77 1.423-4.668V70.338c0-.835.19-1.385.569-1.65.417-.304 1.081-.456 1.992-.456h2.903v-3.985h-3.7c-2.239 0-3.832.532-4.781 1.594-.949 1.025-1.423 2.808-1.423 5.35v13.035c0 1.48-.304 2.467-.91 2.96-.57.455-1.614.683-3.131.683v6.261c1.517 0 2.561.247 3.13.74.607.456.91 1.423.91 2.903v13.035c0 2.542.475 4.326 1.424 5.35zm-4.15-30.772.002-.001-.001.001z" fill="#FDFDFD"/>
    <path d="M70.104 94.415v16.506h-4.952V71.077h10.7c3.226 0 5.655.722 7.286 2.163 1.67 1.404 2.505 3.643 2.505 6.717v5.464c0 4.288-1.708 6.963-5.123 8.026l7.912 17.474h-5.407l-7.343-16.506h-5.578zm10.587-14.97c0-1.442-.342-2.486-1.025-3.13-.645-.646-1.688-.968-3.13-.968h-6.432v14.799h6.432c1.442 0 2.485-.323 3.13-.968.683-.683 1.025-1.746 1.025-3.188v-6.545zM116.78 71.078v4.155h-14.059v13.034h12.636v4.155h-12.636v14.344h14.059v4.155H97.769V71.077h19.011zM147.633 101.245c0 3.225-.892 5.654-2.675 7.286-1.746 1.593-4.269 2.39-7.571 2.39h-8.082v-4.326h8.652c1.404 0 2.542-.417 3.415-1.252.873-.835 1.309-1.84 1.309-3.017v-5.92c0-1.138-.304-2.048-.911-2.731-.569-.721-1.442-1.082-2.618-1.082h-1.708c-2.808 0-5.028-.816-6.659-2.447-1.632-1.67-2.448-4.08-2.448-7.23v-2.162c0-3.226.873-5.635 2.618-7.229 1.784-1.632 4.326-2.448 7.628-2.448h8.139v4.326h-8.709c-1.404 0-2.542.418-3.415 1.253-.872.834-1.309 1.84-1.309 3.016v4.326c0 1.177.38 2.163 1.139 2.96.758.759 1.745 1.139 2.959 1.139h1.708c2.694 0 4.781.777 6.261 2.333 1.518 1.556 2.277 3.909 2.277 7.058v3.757zM166.248 110.921V75.403h-9.05v-4.326h23.052v4.326h-9.05v35.518h-4.952z" fill="#FDFDFD"/>
    <path fill-rule="evenodd" clip-rule="evenodd" d="M79.666 76.314c-.645-.645-1.688-.967-3.13-.967h-6.432v14.799h6.432c1.442 0 2.485-.323 3.13-.968.683-.683 1.025-1.746 1.025-3.188v-6.545c0-1.442-.342-2.486-1.025-3.13zm-6.975 11.244h3.845c.976 0 1.276-.196 1.307-.216.039-.046.26-.35.26-1.352v-6.545c0-.948-.197-1.228-.219-1.255l-.021-.02-.019-.019c-.015-.01-.305-.217-1.308-.217H72.69v9.624zm10.334 23.363-7.343-16.506h-5.578v16.506h-4.952V71.077h10.7c3.226 0 5.655.722 7.286 2.163 1.67 1.404 2.505 3.643 2.505 6.717v5.464c0 3.419-1.085 5.812-3.256 7.18a7.861 7.861 0 0 1-1.867.846l7.912 17.474h-5.407zm.898-16.231 8.52 18.819h-11.1l-7.342-16.507h-1.31v16.507H62.564V68.49h13.289c3.548 0 6.69.785 8.975 2.79 2.446 2.073 3.402 5.176 3.402 8.677v5.464c0 2.47-.49 4.74-1.687 6.615a8.855 8.855 0 0 1-2.62 2.654zm35.444-26.2v9.33h-14.059v7.86h12.636v9.33h-12.636v9.169h14.059v9.33H95.182V68.49h24.185zm-16.646 38.276V92.422h12.636v-4.155h-12.636V75.233h14.059v-4.156H97.769v39.844h19.011v-4.155h-14.059zm43.983 3.674-.002.001c-2.383 2.176-5.624 3.068-9.315 3.068h-10.67v-9.501h11.24c.854 0 1.313-.235 1.626-.534.378-.362.511-.698.511-1.148v-5.92c0-.666-.168-.911-.258-1.013l-.05-.056-.047-.06c-.002-.003-.004-.008-.038-.022-.056-.023-.219-.075-.549-.075h-1.708c-3.335 0-6.27-.986-8.489-3.205l-.01-.01-.011-.011c-2.25-2.302-3.184-5.454-3.184-9.037v-2.163c0-3.677 1.004-6.896 3.461-9.14 2.411-2.205 5.664-3.124 9.372-3.124h10.726v9.5h-11.296c-.853 0-1.313.236-1.626.535-.378.362-.511.698-.511 1.147v4.326c0 .547.149.876.403 1.152.207.199.503.36 1.108.36h1.708c3.205 0 6.039.94 8.125 3.125 2.156 2.219 3 5.337 3 8.853v3.757c0 3.697-1.034 6.924-3.516 9.195zm-12.276-23.482c-.759-.797-1.139-1.783-1.139-2.96v-4.326c0-1.176.437-2.181 1.309-3.016.873-.835 2.011-1.253 3.415-1.253h8.709v-4.326h-8.139c-3.302 0-5.844.816-7.628 2.448-1.745 1.594-2.618 4.003-2.618 7.229v2.163c0 3.15.816 5.559 2.448 7.229 1.631 1.631 3.851 2.447 6.659 2.447h1.708c1.176 0 2.049.36 2.618 1.082.607.683.911 1.593.911 2.732v5.919c0 1.177-.436 2.182-1.309 3.017s-2.011 1.252-3.415 1.252h-8.652v4.326h8.082c3.302 0 5.825-.797 7.571-2.39 1.783-1.632 2.675-4.061 2.675-7.286v-3.757c0-3.15-.759-5.502-2.277-7.058-1.48-1.556-3.567-2.334-6.261-2.334h-1.708c-1.214 0-2.201-.379-2.959-1.138zm29.233 26.551V77.991h-9.051v-9.5h28.227v9.5h-9.05v35.518h-10.126zm7.539-38.106h9.05v-4.326h-23.052v4.326h9.05v35.518h4.952V75.403z" fill="#FDFDFD"/>
    <path d="M199.117 82.461v5.692h-5.692v-5.692h5.692zm0 22.768v5.692h-5.692v-5.692h5.692z" fill="#FDFDFD"/>
    <path fill-rule="evenodd" clip-rule="evenodd" d="M201.704 79.874v10.867h-10.866V79.873h10.866zm0 22.768v10.866h-10.866v-10.866h10.866zm-2.587-20.18h-5.692v5.691h5.692v-5.692zm0 22.767h-5.692v5.692h5.692v-5.692z" fill="#FDFDFD"/>
    <path d="m220.275 100.847-2.22 10.074h-5.066l9.62-39.844h6.546l9.448 39.844h-5.066l-2.163-10.074h-11.099zm10.189-4.27-4.668-21.743-4.61 21.744h9.278zM266.838 86.446c0 3.073-.816 5.35-2.448 6.83-1.632 1.442-4.041 2.163-7.229 2.163h-5.919v15.482h-4.952V71.077h10.757c3.226 0 5.654.722 7.286 2.163 1.67 1.404 2.505 3.643 2.505 6.717v6.489zm-4.952-7.001c0-1.442-.342-2.486-1.025-3.13-.645-.646-1.689-.968-3.131-.968h-6.488V91.17h6.488c1.442 0 2.486-.322 3.131-.968.683-.683 1.025-1.745 1.025-3.187v-7.57zM284.77 106.766V75.233h-5.123v-4.156h15.197v4.156h-5.122v31.533h5.122v4.155h-15.197v-4.155h5.123z" fill="#FDFDFD"/>
    <path fill-rule="evenodd" clip-rule="evenodd" d="M221.186 96.578h9.278l-4.668-21.744-4.61 21.744zm1.423-25.5h6.546l9.448 39.843h-5.066l-2.163-10.074h-11.099l-2.22 10.074h-5.066l9.62-39.844zm-.255 32.356-2.22 10.075h-10.431l10.869-45.019H231.2l10.676 45.019h-10.429l-2.163-10.075h-6.93zm3.458-16.2-1.433 6.756h2.883l-1.45-6.756zm40.304 7.97-.013.01c-2.282 2.018-5.41 2.812-8.942 2.812h-3.332v15.483h-10.127V68.49h13.345c3.548 0 6.69.785 8.976 2.79 2.446 2.073 3.402 5.176 3.402 8.677v6.489c0 3.506-.937 6.607-3.297 8.747l-.012.01zm-14.874.235h5.919c3.188 0 5.597-.72 7.229-2.163 1.632-1.48 2.448-3.757 2.448-6.83v-6.489c0-3.074-.835-5.313-2.505-6.717-1.632-1.441-4.06-2.162-7.286-2.162H246.29v39.843h4.952V95.439zm9.619-19.125c-.645-.645-1.689-.967-3.131-.967h-6.488V91.17h6.488c1.442 0 2.486-.322 3.131-.968.683-.683 1.025-1.745 1.025-3.187v-7.57c0-1.442-.342-2.486-1.025-3.13zm-7.032 12.269h3.902c.976 0 1.276-.196 1.306-.216.04-.046.261-.35.261-1.352v-7.57c0-.948-.197-1.228-.219-1.255l-.021-.02-.019-.019c-.016-.01-.305-.217-1.308-.217h-3.902v10.649zM277.06 77.82v-9.33h20.372v9.33h-5.123v26.359h5.123v9.33H277.06v-9.33h5.122v-26.36h-5.122zm7.71 28.946h-5.123v4.155h15.197v-4.155h-5.122V75.233h5.122v-4.156h-15.197v4.156h5.123v31.533z" fill="#FDFDFD"/>
    <path d="M321.966 94.13c-1.518 0-2.58.247-3.187.74-.57.456-.854 1.423-.854 2.903v13.035c0 2.542-.474 4.326-1.423 5.35-.949 1.063-2.543 1.594-4.781 1.594h-3.7v-3.984h2.903c.91 0 1.556-.152 1.935-.456.417-.265.626-.816.626-1.65V97.773c0-1.897.456-3.453 1.366-4.667.949-1.215 2.106-1.898 3.472-2.05-1.366-.227-2.523-.948-3.472-2.162-.91-1.215-1.366-2.77-1.366-4.668V70.338c0-.835-.209-1.385-.626-1.65-.379-.304-1.025-.456-1.935-.456h-2.903v-3.985h3.7c2.238 0 3.832.532 4.781 1.594.949 1.025 1.423 2.808 1.423 5.35v13.035c0 1.48.284 2.467.854 2.96.607.455 1.669.683 3.187.683v6.261z" fill="#FDFDFD"/>
    <path fill-rule="evenodd" clip-rule="evenodd" d="M324.553 96.718h-2.587c-.632 0-1.069.052-1.35.117a1.658 1.658 0 0 0-.036.01 5.24 5.24 0 0 0-.068.928v13.035c0 2.705-.473 5.325-2.096 7.091-1.661 1.847-4.143 2.44-6.695 2.44h-6.287v-9.159h5.464V97.773c0-2.315.561-4.456 1.883-6.22l.016-.02.015-.02c.139-.178.283-.349.431-.513a9.877 9.877 0 0 1-.431-.513l-.015-.02-.016-.021c-1.322-1.764-1.883-3.905-1.883-6.22V70.82h-5.464V61.66h6.287c2.552 0 5.034.594 6.695 2.44 1.623 1.767 2.096 4.387 2.096 7.092v13.034c0 .433.032.74.069.944.299.063.748.112 1.385.112h2.587v11.436zm-5.774-9.532c-.57-.493-.854-1.48-.854-2.96V71.192c0-2.543-.474-4.326-1.423-5.35-.949-1.063-2.543-1.595-4.781-1.595h-3.7v3.985h2.903c.91 0 1.556.152 1.935.455.417.266.626.816.626 1.65v13.89c0 1.897.456 3.452 1.366 4.667.132.169.268.328.408.478.867.927 1.888 1.489 3.064 1.685-1.184.131-2.211.662-3.082 1.592a6.858 6.858 0 0 0-.39.457c-.91 1.214-1.366 2.77-1.366 4.667v13.889c0 .834-.209 1.385-.626 1.65-.379.304-1.025.456-1.935.456h-2.903v3.984h3.7c2.238 0 3.832-.531 4.781-1.594.949-1.024 1.423-2.808 1.423-5.35V97.773c0-1.48.284-2.447.854-2.903.607-.493 1.669-.74 3.187-.74v-6.26c-1.518 0-2.58-.229-3.187-.684z" fill="#FDFDFD"/>
    <path d="M35.033 84.87c1.517 0 2.561-.229 3.13-.684.607-.493.91-1.48.91-2.96V68.192c0-2.543.475-4.326 1.424-5.35.949-1.063 2.542-1.595 4.781-1.595h3.7v3.985h-2.903c-.91 0-1.575.152-1.992.455-.38.266-.57.816-.57 1.65v13.89c0 1.897-.474 3.452-1.422 4.667-.911 1.214-2.05 1.935-3.416 2.163 1.367.151 2.505.834 3.416 2.049.948 1.214 1.423 2.77 1.423 4.667v13.889c0 .834.19 1.385.569 1.65.417.304 1.081.456 1.992.456h2.903v3.984h-3.7c-2.239 0-3.832-.531-4.781-1.594-.949-1.024-1.423-2.808-1.423-5.35V94.773c0-1.48-.304-2.447-.91-2.903-.57-.493-1.614-.74-3.131-.74v-6.26z" fill="#00B2E3"/>
    <path fill-rule="evenodd" clip-rule="evenodd" d="M32.445 82.282h2.588c.644 0 1.087-.05 1.37-.111l.007-.002c.04-.192.077-.496.077-.943V68.192c0-2.705.473-5.325 2.095-7.091 1.662-1.847 4.144-2.44 6.696-2.44h6.287v9.158h-5.464v13.407c0 2.329-.587 4.478-1.956 6.24-.14.185-.284.363-.434.535.15.17.295.347.434.532 1.369 1.763 1.956 3.911 1.956 6.24v13.407h5.464v9.159h-6.287c-2.552 0-5.034-.593-6.695-2.44-1.623-1.766-2.096-4.386-2.096-7.091V94.773a4.64 4.64 0 0 0-.075-.926 1.977 1.977 0 0 0-.053-.014c-.265-.062-.692-.115-1.326-.115h-2.588V82.282zm8.052 30.876c.949 1.063 2.542 1.594 4.781 1.594h3.7v-3.984h-2.903c-.91 0-1.575-.152-1.992-.456-.38-.265-.57-.816-.57-1.65V94.773c0-1.897-.474-3.453-1.422-4.667a6.408 6.408 0 0 0-.366-.445c-.844-.938-1.86-1.472-3.05-1.604 1.181-.197 2.192-.762 3.032-1.696.132-.147.26-.303.384-.467.948-1.215 1.423-2.77 1.423-4.668V67.338c0-.835.19-1.385.569-1.65.417-.304 1.081-.456 1.992-.456h2.903v-3.985h-3.7c-2.239 0-3.832.532-4.781 1.594-.949 1.025-1.423 2.808-1.423 5.35v13.035c0 1.48-.304 2.467-.91 2.96-.57.455-1.614.683-3.131.683v6.261c1.517 0 2.561.247 3.13.74.607.456.91 1.423.91 2.903v13.035c0 2.542.475 4.326 1.424 5.35zm-4.15-30.772.002-.001-.001.001z" fill="#00B2E3"/>
    <path d="M67.104 91.415v16.506h-4.952V68.077h10.7c3.226 0 5.655.722 7.286 2.163 1.67 1.404 2.505 3.643 2.505 6.717v5.464c0 4.288-1.708 6.963-5.123 8.026l7.912 17.474h-5.407l-7.343-16.506h-5.578zm10.587-14.97c0-1.442-.342-2.486-1.025-3.13-.645-.646-1.688-.968-3.13-.968h-6.432v14.799h6.432c1.442 0 2.485-.323 3.13-.968.683-.683 1.025-1.746 1.025-3.188v-6.545zM113.78 68.078v4.155H99.721v13.034h12.636v4.155H99.721v14.344h14.059v4.155H94.769V68.077h19.011zM144.633 98.245c0 3.225-.892 5.654-2.675 7.286-1.746 1.593-4.269 2.39-7.571 2.39h-8.082v-4.326h8.652c1.404 0 2.542-.417 3.415-1.252.873-.835 1.309-1.84 1.309-3.017v-5.92c0-1.138-.304-2.048-.911-2.731-.569-.721-1.442-1.082-2.618-1.082h-1.708c-2.808 0-5.028-.816-6.659-2.447-1.632-1.67-2.448-4.08-2.448-7.23v-2.162c0-3.226.873-5.635 2.618-7.229 1.784-1.632 4.326-2.448 7.628-2.448h8.139v4.326h-8.709c-1.404 0-2.542.418-3.415 1.253-.872.834-1.309 1.84-1.309 3.016v4.326c0 1.177.38 2.163 1.139 2.96.758.759 1.745 1.139 2.959 1.139h1.708c2.694 0 4.781.777 6.261 2.333 1.518 1.556 2.277 3.909 2.277 7.058v3.757zM163.248 107.921V72.403h-9.05v-4.326h23.052v4.326h-9.05v35.518h-4.952z" fill="#00B2E3"/>
    <path fill-rule="evenodd" clip-rule="evenodd" d="M76.666 73.314c-.645-.645-1.688-.967-3.13-.967h-6.432v14.799h6.432c1.442 0 2.485-.323 3.13-.968.683-.683 1.025-1.746 1.025-3.188v-6.545c0-1.442-.342-2.486-1.025-3.13zm-6.975 11.244h3.845c.976 0 1.276-.196 1.307-.216.039-.046.26-.35.26-1.352v-6.545c0-.948-.197-1.228-.219-1.255l-.021-.02-.019-.019c-.015-.01-.305-.217-1.308-.217H69.69v9.624zm10.334 23.363-7.343-16.506h-5.578v16.506h-4.952V68.077h10.7c3.226 0 5.655.722 7.286 2.163 1.67 1.404 2.505 3.643 2.505 6.717v5.464c0 3.419-1.085 5.812-3.256 7.18a7.861 7.861 0 0 1-1.867.846l7.912 17.474h-5.407zm.898-16.231 8.52 18.819h-11.1l-7.342-16.507h-1.31v16.507H59.564V65.49h13.289c3.548 0 6.69.785 8.975 2.79 2.446 2.073 3.402 5.176 3.402 8.677v5.464c0 2.47-.49 4.74-1.687 6.615a8.855 8.855 0 0 1-2.62 2.654zm35.444-26.2v9.33h-14.059v7.86h12.636v9.33h-12.636v9.169h14.059v9.33H92.182V65.49h24.185zm-16.646 38.276V89.422h12.636v-4.155H99.721V72.233h14.059v-4.156H94.769v39.844h19.011v-4.155H99.721zm43.983 3.674-.002.001c-2.383 2.176-5.624 3.068-9.315 3.068h-10.67v-9.501h11.24c.854 0 1.313-.235 1.626-.534.378-.362.511-.698.511-1.148v-5.92c0-.666-.168-.911-.258-1.013l-.05-.056-.047-.06c-.002-.003-.004-.008-.038-.022-.056-.023-.219-.075-.549-.075h-1.708c-3.335 0-6.27-.986-8.489-3.205l-.01-.01-.011-.011c-2.25-2.302-3.184-5.454-3.184-9.037v-2.163c0-3.677 1.004-6.896 3.461-9.14 2.411-2.205 5.664-3.124 9.372-3.124h10.726v9.5h-11.296c-.853 0-1.313.236-1.626.535-.378.362-.511.698-.511 1.147v4.326c0 .547.149.876.403 1.152.207.199.503.36 1.108.36h1.708c3.205 0 6.039.94 8.125 3.125 2.156 2.219 3 5.337 3 8.853v3.757c0 3.697-1.034 6.924-3.516 9.195zm-12.276-23.482c-.759-.797-1.139-1.783-1.139-2.96v-4.326c0-1.176.437-2.181 1.309-3.016.873-.835 2.011-1.253 3.415-1.253h8.709v-4.326h-8.139c-3.302 0-5.844.816-7.628 2.448-1.745 1.594-2.618 4.003-2.618 7.229v2.163c0 3.15.816 5.559 2.448 7.229 1.631 1.631 3.851 2.447 6.659 2.447h1.708c1.176 0 2.049.36 2.618 1.082.607.683.911 1.593.911 2.732v5.92c0 1.176-.436 2.181-1.309 3.016s-2.011 1.252-3.415 1.252h-8.652v4.326h8.082c3.302 0 5.825-.797 7.571-2.39 1.783-1.632 2.675-4.061 2.675-7.286v-3.757c0-3.15-.759-5.502-2.277-7.058-1.48-1.556-3.567-2.334-6.261-2.334h-1.708c-1.214 0-2.201-.379-2.959-1.138zm29.233 26.551V74.991h-9.051v-9.5h28.227v9.5h-9.05v35.518h-10.126zm7.539-38.106h9.05v-4.326h-23.052v4.326h9.05v35.518h4.952V72.403z" fill="#00B2E3"/>
    <path d="M196.117 79.461v5.692h-5.692v-5.692h5.692zm0 22.768v5.692h-5.692v-5.692h5.692z" fill="#00B2E3"/>
    <path fill-rule="evenodd" clip-rule="evenodd" d="M198.704 76.874v10.867h-10.866V76.873h10.866zm0 22.768v10.866h-10.866V99.642h10.866zm-2.587-20.18h-5.692v5.691h5.692v-5.692zm0 22.767h-5.692v5.692h5.692v-5.692z" fill="#00B2E3"/>
    <path d="m217.275 97.847-2.22 10.074h-5.066l9.62-39.844h6.546l9.448 39.844h-5.066l-2.163-10.075h-11.099zm10.189-4.27-4.668-21.743-4.61 21.744h9.278zM263.838 83.446c0 3.073-.816 5.35-2.448 6.83-1.632 1.442-4.041 2.163-7.229 2.163h-5.919v15.482h-4.952V68.077h10.757c3.226 0 5.654.722 7.286 2.163 1.67 1.404 2.505 3.643 2.505 6.717v6.489zm-4.952-7.001c0-1.442-.342-2.486-1.025-3.13-.645-.646-1.689-.968-3.131-.968h-6.488V88.17h6.488c1.442 0 2.486-.322 3.131-.968.683-.683 1.025-1.745 1.025-3.187v-7.57zM281.77 103.766V72.233h-5.123v-4.156h15.197v4.156h-5.122v31.533h5.122v4.155h-15.197v-4.155h5.123z" fill="#00B2E3"/>
    <path fill-rule="evenodd" clip-rule="evenodd" d="M218.186 93.578h9.278l-4.668-21.744-4.61 21.744zm1.423-25.5h6.546l9.448 39.843h-5.066l-2.163-10.075h-11.099l-2.22 10.075h-5.066l9.62-39.844zm-.255 32.356-2.22 10.075h-10.431l10.869-45.019H228.2l10.676 45.019h-10.429l-2.163-10.075h-6.93zm3.458-16.2-1.433 6.756h2.883l-1.45-6.756zm40.304 7.97-.013.01c-2.282 2.018-5.41 2.812-8.942 2.812h-3.332v15.483h-10.127V65.49h13.345c3.548 0 6.69.785 8.976 2.79 2.446 2.073 3.402 5.176 3.402 8.677v6.489c0 3.506-.937 6.607-3.297 8.747l-.012.01zm-14.874.235h5.919c3.188 0 5.597-.72 7.229-2.163 1.632-1.48 2.448-3.757 2.448-6.83v-6.489c0-3.074-.835-5.313-2.505-6.717-1.632-1.441-4.06-2.162-7.286-2.162H243.29v39.843h4.952V92.439zm9.619-19.125c-.645-.645-1.689-.967-3.131-.967h-6.488V88.17h6.488c1.442 0 2.486-.322 3.131-.968.683-.683 1.025-1.745 1.025-3.187v-7.57c0-1.442-.342-2.486-1.025-3.13zm-7.032 12.269h3.902c.976 0 1.276-.196 1.306-.216.04-.046.261-.35.261-1.352v-7.57c0-.948-.197-1.228-.219-1.255l-.021-.02-.019-.019c-.016-.01-.305-.217-1.308-.217h-3.902v10.649zM274.06 74.82v-9.33h20.372v9.33h-5.123v26.359h5.123v9.33H274.06v-9.33h5.122v-26.36h-5.122zm7.71 28.946h-5.123v4.155h15.197v-4.155h-5.122V72.233h5.122v-4.156h-15.197v4.156h5.123v31.533z" fill="#00B2E3"/>
    <path d="M318.966 91.13c-1.518 0-2.58.247-3.187.74-.57.456-.854 1.423-.854 2.903v13.035c0 2.542-.474 4.326-1.423 5.35-.949 1.063-2.543 1.594-4.781 1.594h-3.7v-3.984h2.903c.91 0 1.556-.152 1.935-.456.417-.265.626-.816.626-1.65V94.773c0-1.897.456-3.453 1.366-4.667.949-1.215 2.106-1.898 3.472-2.05-1.366-.227-2.523-.948-3.472-2.162-.91-1.215-1.366-2.77-1.366-4.668V67.338c0-.835-.209-1.385-.626-1.65-.379-.304-1.025-.456-1.935-.456h-2.903v-3.985h3.7c2.238 0 3.832.532 4.781 1.594.949 1.025 1.423 2.808 1.423 5.35v13.035c0 1.48.284 2.467.854 2.96.607.455 1.669.683 3.187.683v6.261z" fill="#00B2E3"/>
    <path fill-rule="evenodd" clip-rule="evenodd" d="M321.553 93.718h-2.587c-.632 0-1.069.052-1.35.117a1.658 1.658 0 0 0-.036.01 5.24 5.24 0 0 0-.068.928v13.035c0 2.705-.473 5.325-2.096 7.091-1.661 1.847-4.143 2.44-6.695 2.44h-6.287v-9.159h5.464V94.773c0-2.315.561-4.456 1.883-6.22l.016-.02.015-.02c.139-.178.283-.349.431-.513a9.877 9.877 0 0 1-.431-.513l-.015-.02-.016-.021c-1.322-1.764-1.883-3.905-1.883-6.22V67.82h-5.464V58.66h6.287c2.552 0 5.034.594 6.695 2.44 1.623 1.767 2.096 4.387 2.096 7.092v13.034c0 .433.032.74.069.944.299.063.748.112 1.385.112h2.587v11.436zm-5.774-9.532c-.57-.493-.854-1.48-.854-2.96V68.192c0-2.543-.474-4.326-1.423-5.35-.949-1.063-2.543-1.595-4.781-1.595h-3.7v3.985h2.903c.91 0 1.556.152 1.935.455.417.266.626.816.626 1.65v13.89c0 1.897.456 3.452 1.366 4.667.132.169.268.328.408.478.867.927 1.888 1.489 3.064 1.685-1.184.131-2.211.662-3.082 1.592a6.858 6.858 0 0 0-.39.457c-.91 1.214-1.366 2.77-1.366 4.667v13.889c0 .834-.209 1.385-.626 1.65-.379.304-1.025.456-1.935.456h-2.903v3.984h3.7c2.238 0 3.832-.531 4.781-1.594.949-1.024 1.423-2.808 1.423-5.35V94.773c0-1.48.284-2.447.854-2.903.607-.493 1.669-.74 3.187-.74v-6.26c-1.518 0-2.58-.229-3.187-.684z" fill="#00B2E3"/>
</svg>
